<svg width="20" height="20" viewBox="0 0 20 20" fill="none" xmlns="http://www.w3.org/2000/svg">
  <path fill="#E10D34" d="M16.7857 7.85653C16.7857 8.0144 16.723 8.1658 16.6114 8.27743C16.4997 8.38906 16.3483 8.45177 16.1905 8.45177C16.0326 8.45177 15.8812 8.38906 15.7696 8.27743C15.658 8.1658 15.5952 8.0144 15.5952 7.85653V4.53213L10.66 9.46814C10.5483 9.57983 10.3968 9.64258 10.2388 9.64258C10.0809 9.64258 9.9294 9.57983 9.81771 9.46814C9.70602 9.35645 9.64327 9.20496 9.64327 9.04701C9.64327 8.88905 9.70602 8.73757 9.81771 8.62588L14.753 3.68987H11.4286C11.2707 3.68987 11.1193 3.62715 11.0077 3.51552C10.896 3.4039 10.8333 3.25249 10.8333 3.09463C10.8333 2.93676 10.896 2.78536 11.0077 2.67373C11.1193 2.5621 11.2707 2.49939 11.4286 2.49939H16.1905C16.3483 2.49939 16.4997 2.5621 16.6114 2.67373C16.723 2.78536 16.7857 2.93676 16.7857 3.09463V7.85653ZM13.8095 9.64225C13.6517 9.64225 13.5003 9.70496 13.3886 9.81659C13.277 9.92822 13.2143 10.0796 13.2143 10.2375V15.5946H3.69048V6.07082H9.04762C9.20549 6.07082 9.35689 6.00811 9.46852 5.89648C9.58015 5.78485 9.64286 5.63345 9.64286 5.47558C9.64286 5.31771 9.58015 5.16631 9.46852 5.05468C9.35689 4.94305 9.20549 4.88034 9.04762 4.88034H3.69048C3.37474 4.88034 3.07194 5.00577 2.84868 5.22902C2.62542 5.45228 2.5 5.75508 2.5 6.07082V15.5946C2.5 15.9104 2.62542 16.2132 2.84868 16.4364C3.07194 16.6597 3.37474 16.7851 3.69048 16.7851H13.2143C13.53 16.7851 13.8328 16.6597 14.0561 16.4364C14.2793 16.2132 14.4048 15.9104 14.4048 15.5946V10.2375C14.4048 10.0796 14.3421 9.92822 14.2304 9.81659C14.1188 9.70496 13.9674 9.64225 13.8095 9.64225Z"/>
</svg>
