<svg width="24" height="24" viewBox="0 0 24 24" fill="none" xmlns="http://www.w3.org/2000/svg">
<path fill="white" d="M20 16.3903C20 17.1023 19.7227 17.7717 19.2187 18.2757L18.276 19.2183C17.7727 19.7223 17.1027 19.9997 16.3907 19.9997C15.6787 19.9997 15.0087 19.7223 14.5047 19.2183L12.7113 17.425C12.4507 17.1643 12.4507 16.743 12.7113 16.4823C12.972 16.2217 13.3933 16.2217 13.654 16.4823L15.4473 18.2757C15.9513 18.7797 16.8293 18.7797 17.3333 18.2757L18.276 17.333C18.528 17.081 18.6667 16.7463 18.6667 16.3903C18.6667 16.0343 18.528 15.6997 18.276 15.4477L16.9887 14.1597L16.0453 15.1023C15.7847 15.363 15.3633 15.363 15.1027 15.1023C14.842 14.8417 14.842 14.4203 15.1027 14.1597L16.5173 12.7457C16.778 12.485 17.1993 12.485 17.46 12.7457L19.2187 14.505C19.7227 15.0083 20 15.6777 20 16.3903ZM6.57467 11.2883C6.70467 11.4183 6.87533 11.4837 7.046 11.4837C7.21667 11.4837 7.38733 11.4183 7.51733 11.2883C7.778 11.0277 7.778 10.6063 7.51733 10.3457L5.724 8.55234C5.472 8.30034 5.33333 7.96567 5.33333 7.60967C5.33333 7.25367 5.472 6.919 5.724 6.667L6.66667 5.72434C7.17067 5.22034 8.04867 5.22034 8.55267 5.72434L9.84067 7.01234L8.89733 7.955C8.63667 8.21567 8.63667 8.637 8.89733 8.89767C9.158 9.15834 9.57933 9.15834 9.84 8.89767L11.2547 7.48367C11.38 7.35834 11.45 7.18967 11.45 7.01234C11.45 6.835 11.38 6.66567 11.2547 6.541L9.49533 4.78167C8.488 3.773 6.73133 3.773 5.724 4.781L4.78133 5.72367C4.27733 6.22767 4 6.897 4 7.609C4 8.321 4.27733 8.991 4.78133 9.49434L6.57467 11.2883ZM19.2833 8.179L8.63333 18.8277C7.87867 19.5837 6.874 19.9997 5.80533 19.9997H4.66667C4.29867 19.9997 4 19.7017 4 19.333V18.1943C4 17.1257 4.416 16.1217 5.17133 15.3663L15.8207 4.71634C16.7747 3.76234 18.328 3.761 19.2827 4.71634C20.2367 5.671 20.2367 7.22434 19.2827 8.17834L19.2833 8.179ZM15.8167 9.75967L14.24 8.183L6.114 16.309C5.61067 16.813 5.33333 17.4823 5.33333 18.1943V18.6663H5.80533C6.518 18.6663 7.18733 18.389 7.69067 17.885L15.8173 9.759L15.8167 9.75967ZM18.34 5.65967C17.9053 5.225 17.1987 5.22567 16.7633 5.65967L15.1827 7.24034L16.7593 8.817L18.34 7.23634C18.774 6.80167 18.774 6.09434 18.34 5.65967Z"/>
</svg>
