<svg width="24" height="24" viewBox="0 0 24 24" fill="none" xmlns="http://www.w3.org/2000/svg">
  <path fill="currentColor" d="M21.7314 13.532C21.6613 13.5845 21.5816 13.6227 21.4968 13.6445C21.412 13.6662 21.3238 13.671 21.2371 13.6586C21.1505 13.6462 21.0671 13.6169 20.9918 13.5723C20.9165 13.5277 20.8507 13.4687 20.7981 13.3987C20.3964 12.8586 19.8734 12.4204 19.2713 12.1194C18.6693 11.8184 18.005 11.6629 17.3319 11.6655C17.2008 11.6655 17.0726 11.6269 16.9634 11.5544C16.8542 11.4819 16.7687 11.3788 16.7178 11.2581C16.6832 11.1761 16.6653 11.088 16.6653 10.9989C16.6653 10.9099 16.6832 10.8218 16.7178 10.7398C16.7687 10.619 16.8542 10.516 16.9634 10.4435C17.0726 10.371 17.2008 10.3324 17.3319 10.3323C17.7059 10.3323 18.0724 10.2274 18.3898 10.0295C18.7071 9.83161 18.9627 9.54868 19.1273 9.21284C19.2919 8.87701 19.3591 8.50174 19.3211 8.12965C19.2832 7.75756 19.1416 7.40357 18.9126 7.1079C18.6835 6.81222 18.3762 6.5867 18.0254 6.45697C17.6746 6.32723 17.2944 6.29847 16.9281 6.37395C16.5618 6.44943 16.224 6.62613 15.953 6.88398C15.6821 7.14183 15.4889 7.47049 15.3954 7.83263C15.3735 7.91743 15.3351 7.99709 15.2825 8.06707C15.2298 8.13704 15.1639 8.19595 15.0884 8.24044C15.013 8.28493 14.9295 8.31413 14.8428 8.32636C14.7561 8.33859 14.6678 8.33363 14.583 8.31174C14.4982 8.28986 14.4185 8.25149 14.3486 8.19881C14.2786 8.14614 14.2197 8.08021 14.1752 8.00477C14.1307 7.92933 14.1015 7.84586 14.0893 7.75914C14.077 7.67242 14.082 7.58414 14.1039 7.49933C14.2337 6.99715 14.4789 6.53219 14.82 6.14145C15.1611 5.7507 15.5887 5.44496 16.0687 5.24855C16.5488 5.05213 17.068 4.97047 17.5852 5.01006C18.1024 5.04964 18.6032 5.20939 19.0477 5.47657C19.4923 5.74376 19.8684 6.11102 20.146 6.54912C20.4237 6.98723 20.5953 7.48409 20.6471 8.00018C20.6989 8.51626 20.6296 9.03732 20.4446 9.5219C20.2597 10.0065 19.9641 10.4412 19.5816 10.7915C20.488 11.1839 21.276 11.8067 21.8672 12.5979C21.9197 12.6681 21.9579 12.748 21.9795 12.833C22.0011 12.918 22.0057 13.0064 21.9931 13.0931C21.9804 13.1799 21.9508 13.2633 21.9059 13.3386C21.861 13.4139 21.8017 13.4796 21.7314 13.532ZM17.2419 18.6647C17.2901 18.7406 17.3225 18.8255 17.3371 18.9142C17.3517 19.0029 17.3482 19.0936 17.3268 19.1809C17.3054 19.2683 17.2666 19.3504 17.2126 19.4223C17.1587 19.4942 17.0907 19.5545 17.0129 19.5995C16.9351 19.6445 16.8489 19.6732 16.7597 19.6841C16.6705 19.6949 16.5799 19.6876 16.4936 19.6625C16.4073 19.6375 16.3269 19.5952 16.2573 19.5383C16.1877 19.4814 16.1303 19.411 16.0887 19.3313C15.6687 18.6203 15.0707 18.031 14.3535 17.6217C13.6364 17.2123 12.8249 16.997 11.9991 16.997C11.1734 16.997 10.3619 17.2123 9.6447 17.6217C8.92754 18.031 8.3295 18.6203 7.90959 19.3313C7.86791 19.411 7.81056 19.4814 7.74097 19.5383C7.67138 19.5952 7.591 19.6375 7.50466 19.6625C7.41831 19.6876 7.3278 19.6949 7.23855 19.6841C7.1493 19.6732 7.06317 19.6445 6.98534 19.5995C6.9075 19.5545 6.83957 19.4942 6.78564 19.4223C6.7317 19.3504 6.69287 19.2683 6.67148 19.1809C6.65009 19.0936 6.64658 19.0029 6.66118 18.9142C6.67577 18.8255 6.70815 18.7406 6.75638 18.6647C7.40264 17.5543 8.38803 16.6805 9.56773 16.1717C8.90391 15.6634 8.41605 14.96 8.17272 14.1601C7.92939 13.3603 7.94283 12.5043 8.21115 11.7124C8.47946 10.9206 8.98917 10.2328 9.66861 9.74565C10.3481 9.25849 11.1631 8.9965 11.9991 8.9965C12.8352 8.9965 13.6502 9.25849 14.3296 9.74565C15.0091 10.2328 15.5188 10.9206 15.7871 11.7124C16.0554 12.5043 16.0689 13.3603 15.8255 14.1601C15.5822 14.96 15.0943 15.6634 14.4305 16.1717C15.6102 16.6805 16.5956 17.5543 17.2419 18.6647ZM11.9991 15.6651C12.5265 15.6651 13.042 15.5087 13.4805 15.2157C13.919 14.9227 14.2607 14.5063 14.4625 14.0191C14.6643 13.5319 14.7171 12.9958 14.6143 12.4785C14.5114 11.9613 14.2574 11.4862 13.8845 11.1133C13.5116 10.7404 13.0365 10.4865 12.5193 10.3836C12.0021 10.2807 11.466 10.3335 10.9788 10.5353C10.4915 10.7371 10.0751 11.0789 9.78212 11.5174C9.48914 11.9558 9.33276 12.4714 9.33276 12.9987C9.33276 13.7059 9.61368 14.3841 10.1137 14.8841C10.6138 15.3842 11.292 15.6651 11.9991 15.6651ZM7.33298 10.9989C7.33298 10.8221 7.26275 10.6526 7.13774 10.5276C7.01273 10.4026 6.84318 10.3323 6.66639 10.3323C6.29238 10.3323 5.92586 10.2274 5.60849 10.0295C5.29111 9.83161 5.03559 9.54868 4.87096 9.21284C4.70632 8.87701 4.63916 8.50174 4.67712 8.12965C4.71507 7.75756 4.85661 7.40357 5.08566 7.1079C5.31471 6.81222 5.62209 6.5867 5.97289 6.45697C6.32368 6.32723 6.70383 6.29847 7.07015 6.37395C7.43647 6.44943 7.77429 6.62613 8.04522 6.88398C8.31615 7.14183 8.50934 7.47049 8.60284 7.83263C8.64704 8.0039 8.75746 8.15059 8.90982 8.24044C9.06217 8.33029 9.24398 8.35594 9.41525 8.31174C9.58652 8.26755 9.73321 8.15712 9.82306 8.00477C9.91291 7.85241 9.93856 7.6706 9.89436 7.49933C9.76458 6.99715 9.51938 6.53219 9.17829 6.14145C8.83719 5.7507 8.4096 5.44496 7.92954 5.24855C7.44949 5.05213 6.93022 4.97047 6.41305 5.01006C5.89589 5.04964 5.39509 5.20939 4.95053 5.47657C4.50596 5.74376 4.12988 6.11102 3.85223 6.54912C3.57457 6.98723 3.403 7.48409 3.35116 8.00018C3.29932 8.51626 3.36864 9.03732 3.55361 9.5219C3.73859 10.0065 4.0341 10.4412 4.41665 10.7915C3.51115 11.1843 2.7241 11.807 2.13357 12.5979C2.02739 12.7394 1.98173 12.9172 2.00666 13.0923C2.03158 13.2674 2.12504 13.4254 2.26647 13.5316C2.40791 13.6378 2.58573 13.6834 2.76082 13.6585C2.93591 13.6336 3.09393 13.5401 3.20012 13.3987C3.60189 12.8586 4.12486 12.4204 4.72691 12.1194C5.32896 11.8184 5.99328 11.6629 6.66639 11.6655C6.84318 11.6655 7.01273 11.5953 7.13774 11.4703C7.26275 11.3453 7.33298 11.1757 7.33298 10.9989Z"/>
</svg>
